<svg xmlns="http://www.w3.org/2000/svg" viewBox="0 0 800 600" width="800" height="600">
  <defs>
    <linearGradient id="purpleGlow" x1="0%" y1="0%" x2="100%" y2="100%">
      <stop offset="0%" style="stop-color:#7C3AED;stop-opacity:0.2" />
      <stop offset="100%" style="stop-color:#4C1D95;stop-opacity:0.1" />
    </linearGradient>
  </defs>
  
  <!-- Background grid with dots -->
  <rect x="0" y="0" width="800" height="600" fill="#0E0E14" />
  
  <!-- Isometric base -->
  <polygon points="400,300 600,400 400,500 200,400" fill="#1A1A29" stroke="#2B1A47" stroke-width="2"/>
  
  <!-- Central circle with glow -->
  <circle cx="400" cy="300" r="50" fill="url(#purpleGlow)" />
  <circle cx="400" cy="300" r="30" fill="#7C3AED" opacity="0.7" />
  
  <!-- Circuit-like lines -->
  <path d="M400,250 L400,150 L500,100 L600,150" fill="none" stroke="#9C5CF6" stroke-width="1" opacity="0.4"/>
  <path d="M400,250 L300,200 L200,250 L100,200" fill="none" stroke="#9C5CF6" stroke-width="1" opacity="0.4"/>
  <path d="M400,350 L500,400 L600,350" fill="none" stroke="#9C5CF6" stroke-width="1" opacity="0.4"/>
  <path d="M400,350 L300,400 L200,350" fill="none" stroke="#9C5CF6" stroke-width="1" opacity="0.4"/>
  
  <!-- Side elements -->
  <circle cx="200" cy="400" r="40" fill="#0E0E14" stroke="#2B1A47" stroke-width="1"/>
  <circle cx="600" cy="400" r="40" fill="#0E0E14" stroke="#2B1A47" stroke-width="1"/>
  <circle cx="400" cy="550" r="40" fill="#0E0E14" stroke="#2B1A47" stroke-width="1"/>
</svg>